<svg throwIfNamespace: false xmlns="http://www.w3.org/2000/svg" version="1.1" xmlns:xlink="http://www.w3.org/1999/xlink" xmlns:svgjs="http://svgjs.dev/svgjs" width="1000" height="118" viewBox="0 0 1000 118"><g transform="matrix(1,0,0,1,-0.606058587679172,-0.15266517071558638)"><svg viewBox="0 0 396 47" data-background-color="#ffffff" preserveAspectRatio="xMidYMid meet" height="118" width="1000" xmlns="http://www.w3.org/2000/svg" xmlns:xlink="http://www.w3.org/1999/xlink"><g id="tight-bounds" transform="matrix(1,0,0,1,0.23999920072094483,0.06080831279226118)"><svg viewBox="0 0 395.52 46.87838437344811" height="46.87838437344811" width="395.52"><g><svg viewBox="0 0 395.52 46.87838437344811" height="46.87838437344811" width="395.52"><g><svg viewBox="0 0 395.52 46.87838437344811" height="46.87838437344811" width="395.52"><g id="textblocktransform"><svg viewBox="0 0 395.52 46.87838437344811" height="46.87838437344811" width="395.52" id="textblock"><g><svg viewBox="0 0 395.52 46.87838437344811" height="46.87838437344811" width="395.52"><g transform="matrix(1,0,0,1,0,0)"><svg width="395.52" viewBox="0 -35.79999923706055 302.0299987792969 35.79999923706055" height="46.87838437344811" data-palette-color="#000000"><g class="undefined-text-0" data-fill-palette-color="primary" id="text-0"><path d="M0-2.15L4.85-2.15 4.85-34.95 10.75-34.95 31.05-8.85 31.05-34.95 36.95-34.95 36.95-2.15 41.8-2.15 41.8 0 30.55 0 10.75-25.5 10.75 0 0 0 0-2.15ZM41.8-2.15L46.65-2.15 46.65-34.95 71.2-34.95 71.2-29.4 52.55-29.4 52.55-20.15 69.3-20.15 69.3-14.9 52.55-14.9 52.55-5.55 71.8-5.55 71.8-2.15 76.65-2.15 76.65 0 41.8 0 41.8-2.15ZM114.84-2.15L126.9-2.15 126.9 0 108.25 0 100.9-23.95 100.5-23.95 93.15 0 74.5 0 74.5-2.15 86.55-2.15 75.09-34.95 81.45-34.95 90.25-9.8 98.05-34.95 103.34-34.95 111.15-9.8 119.95-34.95 126.3-34.95 114.84-2.15ZM152.14-2.15L158.39-2.15 158.39 0 126.89 0 126.89-2.15 133.29-2.15Q130.89-3.4 128.89-5.25L128.89-5.25 132.59-9.7Q137.89-5.1 143.59-5.1L143.59-5.1Q146.44-5.1 148.12-6.33 149.79-7.55 149.79-9.58 149.79-11.6 148.22-12.73 146.64-13.85 142.79-14.78 138.94-15.7 136.94-16.48 134.94-17.25 133.39-18.5L133.39-18.5Q130.29-20.85 130.29-25.7 130.29-30.55 133.82-33.18 137.34-35.8 142.54-35.8L142.54-35.8Q145.89-35.8 149.19-34.7 152.49-33.6 154.89-31.6L154.89-31.6 151.74-27.15Q150.19-28.55 147.54-29.45 144.89-30.35 142.32-30.35 139.74-30.35 138.09-29.3 136.44-28.25 136.44-26.13 136.44-24 138.09-22.88 139.74-21.75 145.12-20.45 150.49-19.15 153.22-16.8 155.94-14.45 155.94-10.2L155.94-10.2Q155.94-5.05 152.14-2.15L152.14-2.15Z" fill="#000000" data-fill-palette-color="primary"></path><path d="M188.64-2.15L195.19-2.15 195.19 0 158.39 0 158.39-2.15 169.49-2.15Q165.54-4.5 163.27-8.55 160.99-12.6 160.99-17.7L160.99-17.7Q160.99-25.4 166.32-30.6 171.64-35.8 179.77-35.8 187.89-35.8 193.34-29.8L193.34-29.8 189.59-25.7Q187.09-28.1 184.87-29.05 182.64-30 179.64-30L179.64-30Q174.34-30 170.74-26.58 167.14-23.15 167.14-17.82 167.14-12.5 170.72-8.93 174.29-5.35 179.19-5.35L179.19-5.35Q182.24-5.35 184.44-6.38 186.64-7.4 189.04-9.65L189.04-9.65 192.84-5.75Q190.64-3.35 188.64-2.15L188.64-2.15ZM227.99-2.15L232.84-2.15 232.84 0 222.04 0 213.69-11.75 205.94-11.75 205.94 0 195.19 0 195.19-2.15 200.04-2.15 200.04-34.95 213.04-34.95Q221.04-34.95 224.49-32.25 227.94-29.55 227.94-23.6L227.94-23.6Q227.94-14.95 220.39-12.7L220.39-12.7 227.99-2.15ZM213.29-17.1Q218.29-17.1 220.09-18.65 221.89-20.2 221.89-23.63 221.89-27.05 220.04-28.33 218.19-29.6 213.44-29.6L213.44-29.6 205.94-29.6 205.94-17.1 213.29-17.1ZM231.59-2.15L236.44-2.15 236.44-34.95 260.99-34.95 260.99-29.4 242.34-29.4 242.34-20.15 259.09-20.15 259.09-14.9 242.34-14.9 242.34-5.55 261.59-5.55 261.59-2.15 266.44-2.15 266.44 0 231.59 0 231.59-2.15ZM264.28-2.15L269.13-2.15 269.13-34.95 275.03-34.95 275.03-17.9 291.03-34.95 298.53-34.95 284.48-19.65 297.18-2.1 297.18-2.15 302.03-2.15 302.03 0 291.73 0 280.13-15.3 275.03-9.8 275.03 0 264.28 0 264.28-2.15Z" fill="#61777f" data-fill-palette-color="secondary"></path></g></svg></g></svg></g></svg></g></svg></g></svg></g><defs></defs></svg><rect width="395.52" height="46.87838437344811" fill="none" stroke="none" visibility="hidden"></rect></g></svg></g></svg>